<svg width="54" height="54" viewBox="0 0 54 54" fill="none" xmlns="http://www.w3.org/2000/svg">
<path fill-rule="evenodd" clip-rule="evenodd" d="M27 4.5C14.58 4.5 4.5 14.58 4.5 27C4.5 39.42 14.58 49.5 27 49.5C39.42 49.5 49.5 39.42 49.5 27C49.5 14.58 39.42 4.5 27 4.5ZM20.9025 36.6525L12.825 28.575C11.9475 27.6975 11.9475 26.28 12.825 25.4025C13.7025 24.525 15.12 24.525 15.9975 25.4025L22.5 31.8825L37.98 16.4025C38.8575 15.525 40.275 15.525 41.1525 16.4025C42.03 17.28 42.03 18.6975 41.1525 19.575L24.075 36.6525C23.22 37.53 21.78 37.53 20.9025 36.6525Z" fill="#09B24C"/>
</svg>
